<svg width="100%" height="100%" id="svg" viewBox="0 0 1440 500" xmlns="http://www.w3.org/2000/svg" class="transition duration-300 ease-in-out delay-150"><defs><linearGradient id="gradient" x1="24%" y1="93%" x2="76%" y2="7%"><stop offset="5%" stop-color="#ff3d5d88"></stop><stop offset="95%" stop-color="#d52a5e88"></stop></linearGradient></defs><path d="M 0,500 C 0,500 0,166 0,166 C 87.94871794871796,176.58205128205128 175.8974358974359,187.1641025641026 252,170 C 328.1025641025641,152.8358974358974 392.35897435897436,107.92564102564101 470,108 C 547.6410256410256,108.07435897435899 638.6666666666667,153.13333333333333 734,154 C 829.3333333333333,154.86666666666667 928.9743589743589,111.54102564102566 995,108 C 1061.025641025641,104.45897435897434 1093.4358974358975,140.7025641025641 1162,157 C 1230.5641025641025,173.2974358974359 1335.2820512820513,169.64871794871794 1440,166 C 1440,166 1440,500 1440,500 Z" stroke="none" stroke-width="0" fill="url(#gradient)" class="transition-all duration-300 ease-in-out delay-150 path-0"></path><defs><linearGradient id="gradient" x1="24%" y1="93%" x2="76%" y2="7%"><stop offset="5%" stop-color="#ff3d5dff"></stop><stop offset="95%" stop-color="#d52a5eff"></stop></linearGradient></defs><path d="M 0,500 C 0,500 0,333 0,333 C 95.6,364.5487179487179 191.2,396.0974358974359 275,378 C 358.8,359.9025641025641 430.79999999999995,292.1589743589744 509,278 C 587.2,263.8410256410256 671.6,303.2666666666666 739,330 C 806.4,356.7333333333334 856.8,370.77435897435896 922,366 C 987.2,361.22564102564104 1067.2,337.63589743589745 1156,329 C 1244.8,320.36410256410255 1342.4,326.68205128205125 1440,333 C 1440,333 1440,500 1440,500 Z" stroke="none" stroke-width="0" fill="url(#gradient)" class="transition-all duration-300 ease-in-out delay-150 path-1"></path></svg>